<?xml version="1.0" encoding="UTF-8"?>
<svg viewBox="0 0 663 716" xmlns="http://www.w3.org/2000/svg">
 <g transform="translate(11.769 3.6147) scale(1.15,1.15)" fill-rule="evenodd">
  <path d="m131.88 326.47c-8.8356-0.11646-17.273 3.6679-23.062 10.344-9.6828 10.856-18.1 22.865-25.031 35.812-13.862 25.894-21.75 55.579-21.75 86.875 0 101.48 82.956 184.44 184.44 184.44 50.741-2e-5 97.062-20.687 130.41-54.031 16.672-16.672 30.154-36.54 39.5-58.625 4.4592-9.9215 3.1992-21.479-3.2931-30.207s-17.2-13.258-27.984-11.84-19.957 8.5623-23.972 18.672c-6.2904 14.864-15.407 28.282-26.688 39.562-22.562 22.562-53.46 36.469-87.969 36.469-69.018 2e-5 -124.44-55.419-124.44-124.44 0-21.279 5.2796-41.106 14.625-58.562 4.6727-8.7284 10.386-16.842 16.938-24.188 7.9959-8.7172 10.124-21.319 5.433-32.178s-15.324-17.949-27.152-18.103z"/>
  <path d="m194.94 87.624c-34.1 0-61.781 27.681-61.781 61.781-0.01414 3.1505 0.26941 6.2912 0.71875 9.4062 0.00357 0.02043-0.00361 0.04208 0 0.0625l37.25 229.66c2.3503 14.455 14.793 25.101 29.438 25.188l195.25 1.2188 67.469 156.59c6.2644 14.506 22.706 21.667 37.594 16.375l79.25-28.188c15.611-5.5574 23.776-22.733 18.219-38.344s-22.733-23.745-38.344-18.188l-52.75 18.781-64.062-148.78c-4.7167-10.941-15.461-18.055-27.375-18.125l-189.5-1.1875-2.9375-18.031h134.03c10.819 0.15301 20.89-5.5301 26.344-14.875s5.4542-20.905 0-30.25-15.525-15.028-26.344-14.875h-143.75l-10.594-65.219c30.262-3.9837 53.625-29.874 53.625-61.219 0-34.1-27.65-61.781-61.75-61.781z"/>
 </g>
</svg>
